<svg xmlns="http://www.w3.org/2000/svg" width="1343.25" height="439.117" viewBox="0 0 1343.25 439.117">
  <g id="coin" transform="translate(1 1)">
    <path id="Interseção_6" data-name="Interseção 6" d="M1253.836,579.714V456.772q0-30.738-25.377-30.739-25.02,0-25.019,30.739V579.714H1069.763V459.274q0-69.7,46.108-117.413t112.945-47.716q76.488,0,122.6,55.4,36.1,43.249,36.1,120.452V579.714Zm-396.381,0V301.65H991.13V579.714Zm-401.271,0q-29.424-44.244-29.422-100.426,0-78.274,55.043-131.71t135.82-53.435q75.773,0,129.923,54.507T801.7,479.289q0,56.3-29.171,100.426Zm121.41-138.133q-15.012,15.548-15.012,38.065a52.571,52.571,0,0,0,15.19,37.886q15.192,15.726,36.279,15.727,21.445,0,36.635-15.727a52.571,52.571,0,0,0,15.19-37.886q0-22.518-15.011-38.065t-36.815-15.548A48.784,48.784,0,0,0,577.594,441.581ZM229,579.714V529.631q18.937-8.589,28.7-35.688l132.6-5q-3.816,51.513-28.16,90.775Zm0-149.295V295.5q52.528,6.21,94.468,40.818Q374.578,378.5,387.088,443.9l-135.463,5Q241.78,436.049,229,430.419ZM876.578,252.684q-18.765-17.871-18.765-45.751,0-26.091,19.837-45.213t47-19.122q27.165,0,47,19.122t19.837,45.213q0,27.879-18.765,45.751t-48.073,17.87Q895.342,270.554,876.578,252.684Z" transform="translate(-229 -142.598)" fill="none" stroke="#fff" stroke-width="2" opacity="0.08"/>
    <rect id="Retângulo_46" data-name="Retângulo 46" width="187" height="97" transform="translate(1155.25 340.402)" fill="rgba(255,255,255,0)"/>
  </g>
</svg>
